# xmcd
#
# Track frame offsets:
#	182
#	33517
#	76450
#	112555
#	161160
#	211080
#	264920
#	326007
#	328490
#
# Disc length: 4403 seconds
#
# Revision: 0
# Processed by: cddbd v1.5.1PL0 Copyright (c) Steve Scherf et al.
# Submitted via: dBpowerAMP V4.0
#
DISCID=74113109
DTITLE=Toby Keith - Boomtown - A Radio Special
DYEAR=1994
DGENRE=Country
TTITLE0=Radio Show Open/Big Ol' Truck 
TTITLE1=Toby's Firsts/Should've Been A Cowboy/Victoria's Secret
TTITLE2=Writing "No Honor Among Thieves"/No Honor Among Thieves/A Little Less Talk And A Lot More Actron
TTITLE3=Moving Out/Upstairs Downtown/You Ain't Much Fun
TTITLE4=Hometown/Wish I Didn't Know Now/In Other Words
TTITLE5=Guiding Light/Woman Behind The Man/He Ain't Worth Missing/Life Was A Play (The World A Stage)
TTITLE6=About "Boomtown"/Boomtown/Whos That Man?
TTITLE7=Radio Station Promos
TTITLE8=Spot Breaks
EXTD=Promotional CD including Toby's comments about the album "Boomtown" and music from the album. From Radio Station DJ Dan Miller. Available at\nhttp://thehands.org/radiospecials/tobykeith.html
EXTT0=
EXTT1=
EXTT2=
EXTT3=
EXTT4=
EXTT5=
EXTT6=
EXTT7=
EXTT8=
PLAYORDER=
